<svg width="24" height="24" viewBox="0 0 24 24" fill="none" xmlns="http://www.w3.org/2000/svg">
<path d="M20 0C22.2091 2.57702e-07 24 1.79086 24 4V20C24 22.2091 22.2091 24 20 24H4C1.79086 24 6.44266e-08 22.2091 0 20V4C2.57706e-07 1.79086 1.79086 6.44256e-08 4 0H20Z" stroke="#5A5A5A"/>
<path d="M17.8327 7.34102L16.6577 6.16602L11.9993 10.8243L7.34102 6.16602L6.16602 7.34102L10.8243 11.9993L6.16602 16.6577L7.34102 17.8327L11.9993 13.1743L16.6577 17.8327L17.8327 16.6577L13.1743 11.9993L17.8327 7.34102Z" fill="white"/>
</svg>
